<?xml version="1.0" encoding="UTF-8"?>
<svg version="1.1" xmlns="http://www.w3.org/2000/svg" width="255" height="255">
<path d="M0 0 C84.15 0 168.3 0 255 0 C255 84.15 255 168.3 255 255 C170.85 255 86.7 255 0 255 C0 170.85 0 86.7 0 0 Z " fill="#EEEDEE" transform="translate(0,0)"/>
<path d="M0 0 C12.21 0 24.42 0 37 0 C37 84.15 37 168.3 37 255 C-47.15 255 -131.3 255 -218 255 C-218 242.13 -218 229.26 -218 216 C-145.73 216 -73.46 216 1 216 C0.67 144.72 0.34 73.44 0 0 Z " fill="#FFFFFF" transform="translate(218,0)"/>
<path d="M0 0 C0.495 0.99 0.495 0.99 1 2 C4.96 2 8.92 2 13 2 C13 1.34 13 0.68 13 0 C17.48850944 1.22413894 19.95946852 2.48553953 23 6 C26.38458449 12.62537944 27.58317047 19.61815289 28.3125 26.95703125 C28.82571516 30.09751704 28.82571516 30.09751704 30.828125 32.67578125 C33.83746171 37.2817984 35.17455858 42.13479784 36.75 47.375 C37.06582031 48.39722656 37.38164062 49.41945312 37.70703125 50.47265625 C38.48008878 52.97923673 39.24410243 55.4882021 40 58 C39.34 58 38.68 58 38 58 C33.545 45.625 33.545 45.625 29 33 C26.03 33 23.06 33 20 33 C19.67 41.25 19.34 49.5 19 58 C16.69 58 14.38 58 12 58 C12 80.77 12 103.54 12 127 C18.93 127 25.86 127 33 127 C33.99 127.99 34.98 128.98 36 130 C38.58416247 130.33374277 38.58416247 130.33374277 41 130 C41.33 129.67 41.66 129.34 42 129 C51.45024778 127.99300638 60.78086207 130.18427295 70 132 C70.33 132.99 70.66 133.98 71 135 C63.76203438 137.15051636 56.63531818 137.66651919 49.1171875 138.109375 C48.41955166 138.15124687 47.72191582 138.19311874 47.0031395 138.23625946 C26.92441293 139.40705043 6.81386291 139.3028417 -13.29150391 139.26074219 C-18.76897144 139.24936297 -24.2462444 139.25613291 -29.72370529 139.26760101 C-49.85296683 139.30358859 -69.96498107 139.23875909 -90.0703125 138.171875 C-90.78469357 138.13731453 -91.49907463 138.10275406 -92.23510361 138.0671463 C-100.00615139 137.67632736 -106.75400224 136.8983991 -114 134 C-114 133.34 -114 132.68 -114 132 C-108.72573211 129.93879186 -103.64940914 129.37877156 -98.0625 128.875 C-97.19431641 128.78863281 -96.32613281 128.70226562 -95.43164062 128.61328125 C-90.59731515 128.1528693 -85.85541098 127.90751598 -81 128 C-81.19335938 127.47535156 -81.38671875 126.95070313 -81.5859375 126.41015625 C-86.6510112 111.34030827 -86.46085485 94.68045078 -87.125 78.9375 C-87.21167595 76.99151127 -87.29891244 75.04554743 -87.38671875 73.09960938 C-87.59758407 68.40000026 -87.80094799 63.70012367 -88 59 C-90.31 58.34 -92.62 57.68 -95 57 C-95 47.43 -95 37.86 -95 28 C-76.19 28 -57.38 28 -38 28 C-38 27.34 -38 26.68 -38 26 C-38.62648438 25.87882812 -39.25296875 25.75765625 -39.8984375 25.6328125 C-40.71570313 25.46523437 -41.53296875 25.29765625 -42.375 25.125 C-43.18710938 24.96257812 -43.99921875 24.80015625 -44.8359375 24.6328125 C-47 24 -47 24 -49 22 C-49 21.01 -49 20.02 -49 19 C-47.69869141 19.21462891 -47.69869141 19.21462891 -46.37109375 19.43359375 C-40.3017421 20.30064399 -34.1746574 20.62980926 -28.0625 21.0625 C-26.80630859 21.15337891 -25.55011719 21.24425781 -24.25585938 21.33789062 C-21.17072278 21.56077122 -18.08544283 21.7814067 -15 22 C-14.39679917 19.63951022 -13.86088054 17.29819993 -13.38671875 14.90625 C-13.15597656 13.7821875 -12.92523438 12.658125 -12.6875 11.5 C-12.46449219 10.3759375 -12.24148437 9.251875 -12.01171875 8.09375 C-10.89464818 4.67784307 -9.78910233 3.21872305 -7 1 C-4 0 -4 0 0 0 Z " fill="#FCB5C2" transform="translate(135,72)"/>
<path d="M0 0 C0.16142134 24.35723877 -0.32124237 48.64956987 -1 73 C-20.8 73 -40.6 73 -61 73 C-63.24257426 55.05940594 -63.24257426 55.05940594 -63.5625 48.375 C-63.63462947 46.96740736 -63.70756081 45.5598556 -63.78125 44.15234375 C-63.81605469 43.46640137 -63.85085937 42.78045898 -63.88671875 42.07373047 C-64.17967224 36.7109137 -64.60107647 31.35576065 -65 26 C-63.68 25.67 -62.36 25.34 -61 25 C-61 24.34 -61 23.68 -61 23 C-56.90779238 21.39234701 -52.98409917 19.94062839 -48.6875 19 C-45.10315864 18.02797522 -44.25003673 17.67861515 -42 15 C-38.79819769 12.86546512 -35.52551418 11.35471681 -31.97265625 9.89453125 C-28.83596065 8.47214849 -25.89061549 6.72275155 -22.91796875 4.98828125 C-21 4 -21 4 -19 4 C-19 3.34 -19 2.68 -19 2 C-17.95199219 2.02320312 -16.90398437 2.04640625 -15.82421875 2.0703125 C-14.44531963 2.08907303 -13.0664128 2.10727293 -11.6875 2.125 C-10.65206055 2.15013672 -10.65206055 2.15013672 -9.59570312 2.17578125 C-5.91760839 2.2113184 -3.00153712 0 0 0 Z " fill="#FECE39" transform="translate(126,100)"/>
<path d="M0 0 C0.495 0.99 0.495 0.99 1 2 C4.96 2 8.92 2 13 2 C13 1.34 13 0.68 13 0 C17.48850944 1.22413894 19.95946852 2.48553953 23 6 C26.38458449 12.62537944 27.58317047 19.61815289 28.3125 26.95703125 C28.82571516 30.09751704 28.82571516 30.09751704 30.828125 32.67578125 C33.83746171 37.2817984 35.17455858 42.13479784 36.75 47.375 C37.06582031 48.39722656 37.38164062 49.41945312 37.70703125 50.47265625 C38.48008878 52.97923673 39.24410243 55.4882021 40 58 C39.34 58 38.68 58 38 58 C33.545 45.625 33.545 45.625 29 33 C26.03 33 23.06 33 20 33 C19.67 41.25 19.34 49.5 19 58 C16.69 58 14.38 58 12 58 C12.00222061 58.76040085 12.00444122 59.5208017 12.00672913 60.304245 C12.02689784 67.52582157 12.04205777 74.74738419 12.05181217 81.96898174 C12.05699582 85.68026128 12.06400972 89.39151723 12.07543945 93.1027832 C12.08643102 96.69490091 12.0923107 100.28699616 12.09487724 103.87912941 C12.09758126 105.89336005 12.10536643 107.90758186 12.11329651 109.92179871 C12.11378033 117.99493752 11.7478013 125.96125525 11 134 C7.7 134 4.4 134 1 134 C1 133.01 1 132.02 1 131 C3.31 130.67 5.62 130.34 8 130 C7.71125 128.72125 7.4225 127.4425 7.125 126.125 C3.81646111 109.25379813 3.46933283 92.13637178 3 75 C-0.39112686 87.36542008 -0.74799139 99.63427892 -1.1875 112.375 C-1.26906733 114.47921018 -1.35174139 116.58337777 -1.43554688 118.6875 C-1.63644879 123.79126568 -1.82240614 128.89537232 -2 134 C-5.96 134 -9.92 134 -14 134 C-14 133.01 -14 132.02 -14 131 C-11.69 130.67 -9.38 130.34 -7 130 C-7 127.49738865 -7.48620933 125.21398116 -7.9375 122.75 C-10.05564479 110.10751967 -10.1418089 97.44104357 -10.09765625 84.6640625 C-10.09578555 83.04739425 -10.09436474 81.43072542 -10.09336853 79.8140564 C-10.08959462 75.6089108 -10.07980969 71.40380109 -10.06866455 67.19866943 C-10.05833866 62.88765956 -10.05384724 58.57664374 -10.04882812 54.265625 C-10.03818151 45.84373374 -10.02116868 37.42187136 -10 29 C-10.99 29.66 -11.98 30.32 -13 31 C-21.40824172 31.91965144 -29.04069266 30.67968664 -37 28 C-37 26.02 -37 24.04 -37 22 C-29.74 22 -22.48 22 -15 22 C-14.41186033 19.64744132 -13.85824922 17.28492602 -13.38671875 14.90625 C-13.15597656 13.7821875 -12.92523438 12.658125 -12.6875 11.5 C-12.46449219 10.3759375 -12.24148437 9.251875 -12.01171875 8.09375 C-10.89464818 4.67784307 -9.78910233 3.21872305 -7 1 C-4 0 -4 0 0 0 Z " fill="#A412A0" transform="translate(135,72)"/>
<path d="M0 0 C5.28 0 10.56 0 16 0 C16.83982958 3.35931832 17.12850056 5.73808607 17.1328125 9.1328125 C17.13474609 10.58880859 17.13474609 10.58880859 17.13671875 12.07421875 C17.13285156 13.08097656 17.12898438 14.08773437 17.125 15.125 C17.13080078 16.64673828 17.13080078 16.64673828 17.13671875 18.19921875 C17.13542969 19.16730469 17.13414062 20.13539062 17.1328125 21.1328125 C17.13168457 22.01855957 17.13055664 22.90430664 17.12939453 23.81689453 C17 26 17 26 16 28 C20.29 28 24.58 28 29 28 C26.31414538 60.2302554 26.31414538 60.2302554 20.1171875 73.46484375 C16.30981645 82.10464729 13.30145749 90.46336764 13.921875 100.0234375 C13.94765625 100.67570312 13.9734375 101.32796875 14 102 C13 103 13 103 10.625 103.25 C8 103 8 103 5 100 C-1.93 99.67 -8.86 99.34 -16 99 C-16 76.23 -16 53.46 -16 30 C-13.69 30 -11.38 30 -9 30 C-9.00523682 29.2479126 -9.01047363 28.4958252 -9.01586914 27.72094727 C-9.03657227 24.33480658 -9.04963877 20.94867916 -9.0625 17.5625 C-9.07087891 16.37849609 -9.07925781 15.19449219 -9.08789062 13.97460938 C-9.09111328 12.84990234 -9.09433594 11.72519531 -9.09765625 10.56640625 C-9.10289307 9.52427979 -9.10812988 8.48215332 -9.11352539 7.40844727 C-9 5 -9 5 -8 4 C-6.48071962 3.92820036 -4.95832518 3.91607993 -3.4375 3.9375 C-2.61121094 3.94652344 -1.78492188 3.95554687 -0.93359375 3.96484375 C-0.29550781 3.97644531 0.34257812 3.98804687 1 4 C4.69266229 11.79562039 7.36498065 19.80336195 10 28 C9.23211036 23.28965255 7.70366863 18.92322917 6.125 14.4375 C5.86847656 13.68275391 5.61195313 12.92800781 5.34765625 12.15039062 C3.98314521 8.25913426 2.63518608 5.22691948 0 2 C0 1.34 0 0.68 0 0 Z " fill="#F6AFBE" transform="translate(163,100)"/>
<path d="M0 0 C0.33 0 0.66 0 1 0 C1 3.3 1 6.6 1 10 C2.62550781 10.04898438 4.25101563 10.09796875 5.92578125 10.1484375 C8.05470492 10.22346565 10.18361032 10.29901346 12.3125 10.375 C13.38435547 10.4059375 14.45621094 10.436875 15.56054688 10.46875 C16.58857422 10.50742187 17.61660156 10.54609375 18.67578125 10.5859375 C19.62364502 10.6173584 20.57150879 10.6487793 21.5480957 10.68115234 C24 11 24 11 27 13 C28.07495117 15.55029297 28.07495117 15.55029297 29.04296875 18.7421875 C29.39423828 19.89074219 29.74550781 21.03929688 30.10742188 22.22265625 C30.46384766 23.42792969 30.82027344 24.63320312 31.1875 25.875 C31.55552734 27.07253906 31.92355469 28.27007812 32.30273438 29.50390625 C35 38.4414135 35 38.4414135 35 43 C34.34 43 33.68 43 33 43 C33 42.01 33 41.02 33 40 C24.42 40 15.84 40 7 40 C7 44.62 7 49.24 7 54 C0.73 54 -5.54 54 -12 54 C-11.9278125 55.84335938 -11.855625 57.68671875 -11.78125 59.5859375 C-11.05074225 79.39819316 -10.88034186 99.17540775 -11 119 C-11.66 119 -12.32 119 -13 119 C-26.1286867 95.82842902 -31.82378559 70.12829163 -24.91088867 43.67211914 C-22.82737827 36.65532009 -19.55793346 30.36602288 -16 24 C-15.41089844 22.906875 -14.82179688 21.81375 -14.21484375 20.6875 C-12.82690213 18.11505028 -11.42260205 15.55338829 -10 13 C-9.34 13 -8.68 13 -8 13 C-7.690625 12.01 -7.690625 12.01 -7.375 11 C-5.49903535 6.90698622 -2.91511774 3.42505088 0 0 Z " fill="#D3E7F9" transform="translate(51,45)"/>
<path d="M0 0 C0.33 0 0.66 0 1 0 C1.01458252 0.77263184 1.02916504 1.54526367 1.04418945 2.34130859 C1.3407448 16.53614504 1.8287905 30.63144423 3.4375 44.75 C3.62082886 46.40781494 3.62082886 46.40781494 3.80786133 48.09912109 C4.18044908 53.59702311 4.18044908 53.59702311 7 58 C4.04335481 59.4783226 1.25770263 59.06032783 -2 59 C-2 59.99 -2 60.98 -2 62 C1.3 62 4.6 62 8 62 C8 57.71 8 53.42 8 49 C8.33 49 8.66 49 9 49 C9 50.98 9 52.96 9 55 C9.62044189 54.98428955 10.24088379 54.9685791 10.88012695 54.95239258 C13.69082528 54.89003786 16.50137812 54.85100852 19.3125 54.8125 C20.28896484 54.78736328 21.26542969 54.76222656 22.27148438 54.73632812 C23.20927734 54.72666016 24.14707031 54.71699219 25.11328125 54.70703125 C25.97735596 54.6913208 26.84143066 54.67561035 27.73168945 54.65942383 C30.48863068 55.0733656 31.17091153 55.98422289 33 58 C35.58416247 58.33374277 35.58416247 58.33374277 38 58 C38.33 57.67 38.66 57.34 39 57 C48.45024778 55.99300638 57.78086207 58.18427295 67 60 C67.33 60.99 67.66 61.98 68 63 C60.76203438 65.15051636 53.63531818 65.66651919 46.1171875 66.109375 C45.41955166 66.15124687 44.72191582 66.19311874 44.0031395 66.23625946 C23.92441293 67.40705043 3.81386291 67.3028417 -16.29150391 67.26074219 C-21.76897144 67.24936297 -27.2462444 67.25613291 -32.72370529 67.26760101 C-52.85296683 67.30358859 -72.96498107 67.23875909 -93.0703125 66.171875 C-93.78469357 66.13731453 -94.49907463 66.10275406 -95.23510361 66.0671463 C-103.00615139 65.67632736 -109.75400224 64.8983991 -117 62 C-117 61.34 -117 60.68 -117 60 C-111.74367483 57.94917149 -106.69181207 57.37956989 -101.125 56.875 C-100.26519531 56.78863281 -99.40539062 56.70226562 -98.51953125 56.61328125 C-93.33219309 56.11737487 -88.20469624 55.63904791 -83 56 C-82.34 56.99 -81.68 57.98 -81 59 C-77.93443402 59.73343428 -77.93443402 59.73343428 -75 60 C-75 58.35 -75 56.7 -75 55 C-67.08793165 54.13121107 -59.28778712 53.86510059 -51.33203125 53.90234375 C-50.17120529 53.9037587 -49.01037933 53.90517365 -47.81437683 53.90663147 C-44.1470571 53.91217942 -40.47980093 53.92472195 -36.8125 53.9375 C-34.30924568 53.94252174 -31.80599039 53.94708346 -29.30273438 53.95117188 C-23.20180163 53.96213174 -17.10090536 53.97881713 -11 54 C-11 52.35 -11 50.7 -11 49 C-10.67 49 -10.34 49 -10 49 C-9.896875 50.11375 -9.79375 51.2275 -9.6875 52.375 C-9.460625 53.57125 -9.23375 54.7675 -9 56 C-7.515 56.99 -7.515 56.99 -6 58 C-9.67410785 59.17571451 -13.16929183 59.07366746 -17 59 C-17 59.99 -17 60.98 -17 62 C-13.04 62 -9.08 62 -5 62 C-5.01160156 60.34355469 -5.02320313 58.68710938 -5.03515625 56.98046875 C-5.13498964 37.37642049 -5.22715118 18.98793057 0 0 Z " fill="#74AFF9" transform="translate(138,144)"/>
<path d="M0 0 C0.33 0 0.66 0 1 0 C1.7226438 4.63914256 2.43422487 9.27980864 3.13623047 13.92211914 C3.3758147 15.49646086 3.61825611 17.07037084 3.86376953 18.64379883 C4.21905879 20.92417583 4.56354986 23.20598231 4.90625 25.48828125 C5.0156189 26.17521561 5.12498779 26.86214996 5.2376709 27.56990051 C6.09449081 33.38916451 6.10720012 39.12590114 6 45 C7.12419594 44.99666908 7.12419594 44.99666908 8.27110291 44.99327087 C15.31982291 44.97326821 22.36853315 44.958026 29.41727352 44.94818783 C33.0414596 44.94295998 36.6656223 44.93586413 40.28979492 44.92456055 C43.78459975 44.91372816 47.27938204 44.90772242 50.77420235 44.90512276 C52.76239389 44.90236449 54.75057631 44.89455312 56.73875427 44.88670349 C57.93992386 44.88662796 59.14109344 44.88655243 60.37866211 44.88647461 C61.97417152 44.88314369 61.97417152 44.88314369 63.60191345 44.87974548 C66 45 66 45 67 46 C67.24113773 48.14046947 67.41676089 50.28842647 67.5625 52.4375 C67.64628906 53.61183594 67.73007813 54.78617188 67.81640625 55.99609375 C68.0302434 60.65956361 68 65.33163011 68 70 C46.55 70.33 25.1 70.66 3 71 C0.86680513 64.6004154 0.08036054 58.7925513 -0.625 52.125 C-0.75616211 50.89007813 -0.88732422 49.65515625 -1.02246094 48.3828125 C-2.53918359 33.00285083 -3.58543877 16.35303761 -1 1 C-0.67 0.67 -0.34 0.34 0 0 Z " fill="#D8E8FC" transform="translate(59,128)"/>
<path d="M0 0 C0 14.52 0 29.04 0 44 C-10.56 44 -21.12 44 -32 44 C-33.71802382 40.56395235 -33.1196618 36.61561104 -33.09765625 32.8359375 C-33.0962413 31.92872955 -33.09482635 31.02152161 -33.09336853 30.08682251 C-33.08776096 27.18284845 -33.07520718 24.27895085 -33.0625 21.375 C-33.05748598 19.40885528 -33.0529229 17.44270935 -33.04882812 15.4765625 C-33.03778906 10.6510121 -33.02051935 5.82551903 -33 1 C-28.9432275 0.85669424 -24.88642396 0.71430497 -20.82958984 0.57275391 C-19.4503493 0.52450154 -18.07111739 0.47600154 -16.69189453 0.42724609 C-14.70607777 0.35709107 -12.7202267 0.28790901 -10.734375 0.21875 C-9.54038086 0.17685547 -8.34638672 0.13496094 -7.11621094 0.09179688 C-4.74497189 0.02194527 -2.37226766 0 0 0 Z " fill="#FEDB16" transform="translate(180,130)"/>
<path d="M0 0 C3.93743833 -0.05797565 7.87476719 -0.09358789 11.8125 -0.125 C12.93205078 -0.14175781 14.05160156 -0.15851562 15.20507812 -0.17578125 C16.27822266 -0.18222656 17.35136719 -0.18867187 18.45703125 -0.1953125 C19.9416687 -0.21102295 19.9416687 -0.21102295 21.45629883 -0.22705078 C24 0 24 0 27 2 C28.07495117 4.55029297 28.07495117 4.55029297 29.04296875 7.7421875 C29.39423828 8.89074219 29.74550781 10.03929688 30.10742188 11.22265625 C30.46384766 12.42792969 30.82027344 13.63320312 31.1875 14.875 C31.55552734 16.07253906 31.92355469 17.27007812 32.30273438 18.50390625 C35 27.4414135 35 27.4414135 35 32 C34.34 32 33.68 32 33 32 C33 31.01 33 30.02 33 29 C24.42 29 15.84 29 7 29 C7 33.62 7 38.24 7 43 C1.72 43 -3.56 43 -9 43 C-9 41.02 -9 39.04 -9 37 C-8.34 37 -7.68 37 -7 37 C-7.33 35.989375 -7.66 34.97875 -8 33.9375 C-9.66588042 27.4499516 -9.15576843 20.64611974 -9 14 C-8.34 14 -7.68 14 -7 14 C-5.68 17.3 -4.36 20.6 -3 24 C-1.48294878 16.01019691 0 8.15068458 0 0 Z " fill="#32287D" transform="translate(51,56)"/>
<path d="M0 0 C0.81693329 -0.0115361 1.63386658 -0.0230722 2.47555542 -0.03495789 C5.16951443 -0.06917762 7.86324478 -0.08774815 10.55737305 -0.10327148 C11.48057028 -0.11017439 12.40376751 -0.11707729 13.35494041 -0.12418938 C18.24004658 -0.1599849 23.12503783 -0.18354571 28.01025391 -0.19726562 C33.04437138 -0.21381587 38.07708476 -0.2722549 43.11073017 -0.34040928 C46.9927846 -0.3852726 50.87450447 -0.39876576 54.75679588 -0.40388298 C56.61192698 -0.41175805 58.46704827 -0.43134695 60.32192421 -0.46310616 C76.63242857 -0.72397428 76.63242857 -0.72397428 81.89404297 3.69775391 C83.9916724 5.98505584 84.7595478 7.34700277 85.7565918 10.33813477 C52.7565918 10.33813477 19.7565918 10.33813477 -14.2434082 10.33813477 C-14.2434082 19.57813477 -14.2434082 28.81813477 -14.2434082 38.33813477 C-17.2134082 38.33813477 -20.1834082 38.33813477 -23.2434082 38.33813477 C-22.96500877 34.10798519 -22.66837741 29.87930517 -22.3684082 25.65063477 C-22.28977539 24.45245117 -22.21114258 23.25426758 -22.13012695 22.01977539 C-22.04633789 20.8628418 -21.96254883 19.7059082 -21.8762207 18.51391602 C-21.80290527 17.45084229 -21.72958984 16.38776855 -21.65405273 15.29248047 C-20.98942943 10.51090695 -19.94238272 8.00604375 -16.4309082 4.65063477 C-10.99457994 0.70663191 -6.62039908 0.03297572 0 0 Z " fill="#EAB9F0" transform="translate(74.243408203125,17.661865234375)"/>
<path d="M0 0 C0.33 0 0.66 0 1 0 C1.02333604 7.85927086 1.04102213 15.71853335 1.05181217 23.57783031 C1.05699503 27.2285759 1.06400742 30.87929751 1.07543945 34.5300293 C1.08643392 38.06379235 1.09231129 41.59753256 1.09487724 45.13131142 C1.0975803 47.11230346 1.10536495 49.09328652 1.11329651 51.07426453 C1.11378502 59.09613669 0.74060326 67.01218107 0 75 C-3.3 75 -6.6 75 -10 75 C-10 74.01 -10 73.02 -10 72 C-6.535 71.505 -6.535 71.505 -3 71 C-3.28875 69.72125 -3.5775 68.4425 -3.875 67.125 C-7.18353889 50.25379813 -7.53066717 33.13637178 -8 16 C-11.39112686 28.36542008 -11.74799139 40.63427892 -12.1875 53.375 C-12.26906733 55.47921018 -12.35174139 57.58337777 -12.43554688 59.6875 C-12.63644879 64.79126568 -12.82240614 69.89537232 -13 75 C-16.96 75 -20.92 75 -25 75 C-25 74.01 -25 73.02 -25 72 C-21.535 71.505 -21.535 71.505 -18 71 C-18 68.49738865 -18.48620933 66.21398116 -18.9375 63.75 C-21.26928638 49.75928174 -21.12778661 35.76139846 -21.0625 21.625 C-21.05747156 19.71354285 -21.05291104 17.80208441 -21.04882812 15.890625 C-21.03879722 11.26035772 -21.0192039 6.63027411 -21 2 C-10.605 2.99 -10.605 2.99 0 4 C0 2.68 0 1.36 0 0 Z " fill="#382B7E" transform="translate(146,131)"/>
<path d="M0 0 C1.98 0.66 3.96 1.32 6 2 C8.13588944 18.63982 9.80121536 35.26651606 11 52 C13.31 52.33 15.62 52.66 18 53 C18.31035106 65.39653557 18.32847629 77.378075 16.06494141 89.59887695 C15.26312439 93.9917904 14.88407062 98.01048648 15.0625 102.5 C15.25655528 108.48196487 13.73324879 113.68313283 11 119 C10.01 119.495 10.01 119.495 9 120 C9.11972168 119.37053467 9.23944336 118.74106934 9.36279297 118.0925293 C10.8046036 110.35797597 11.9918597 102.59759357 13.125 94.8125 C13.39763672 92.9552832 13.39763672 92.9552832 13.67578125 91.06054688 C14.11886145 88.04060553 14.56023475 85.02042553 15 82 C14.34 82.185625 13.68 82.37125 13 82.5625 C10 83 10 83 2 82 C2 72.76 2 63.52 2 54 C1.34 54 0.68 54 0 54 C0 36.18 0 18.36 0 0 Z " fill="#EBBCED" transform="translate(177,46)"/>
<path d="M0 0 C0.15179972 23.36080895 -0.2896493 46.64722071 -1 70 C-18.49 70 -35.98 70 -54 70 C-54.33 68.68 -54.66 67.36 -55 66 C-54 65 -54 65 -51.90562439 64.87974548 C-50.98407059 64.88196609 -50.06251678 64.88418671 -49.11303711 64.88647461 C-48.07203354 64.88655014 -47.03102997 64.88662567 -45.95848083 64.88670349 C-44.8262056 64.89186478 -43.69393036 64.89702606 -42.52734375 64.90234375 C-41.37456436 64.9037587 -40.22178497 64.90517365 -39.03407288 64.90663147 C-35.33518936 64.91224995 -31.63636536 64.92480558 -27.9375 64.9375 C-25.43684983 64.94251262 -22.93619871 64.94707594 -20.43554688 64.95117188 C-14.29034149 64.96222538 -8.14518085 64.9795024 -2 65 C-2 61.04 -2 57.08 -2 53 C-19.82 53 -37.64 53 -56 53 C-55.67 51.68 -55.34 50.36 -55 49 C-37.51 49 -20.02 49 -2 49 C-2 43.06 -2 37.12 -2 31 C-20.15 31 -38.3 31 -57 31 C-56.505 29.515 -56.505 29.515 -56 28 C-37.85 28 -19.7 28 -1 28 C-1.495 17.605 -1.495 17.605 -2 7 C-5.031875 6.979375 -8.06375 6.95875 -11.1875 6.9375 C-12.13391357 6.928396 -13.08032715 6.91929199 -14.05541992 6.90991211 C-18.16682812 6.89638343 -21.99201172 6.94613973 -26 8 C-23.82575883 5.49962266 -22.26954202 4.56371414 -19 4 C-19 3.34 -19 2.68 -19 2 C-17.95199219 2.02320312 -16.90398437 2.04640625 -15.82421875 2.0703125 C-14.44531963 2.08907303 -13.0664128 2.10727293 -11.6875 2.125 C-10.65206055 2.15013672 -10.65206055 2.15013672 -9.59570312 2.17578125 C-5.91760839 2.2113184 -3.00153712 0 0 0 Z " fill="#FEA135" transform="translate(126,100)"/>
<path d="M0 0 C5.28 0 10.56 0 16 0 C16.8885597 3.55423882 17.08230082 5.97115052 16.9921875 9.5703125 C16.97542969 10.63121094 16.95867187 11.69210938 16.94140625 12.78515625 C16.89697679 15.01969655 16.84483831 17.25409631 16.78515625 19.48828125 C16.77097656 20.54660156 16.75679687 21.60492188 16.7421875 22.6953125 C16.7201123 23.66484863 16.69803711 24.63438477 16.67529297 25.63330078 C16.78244629 26.41431152 16.88959961 27.19532227 17 28 C17.99 28.66 18.98 29.32 20 30 C19.34 30 18.68 30 18 30 C18 44.19 18 58.38 18 73 C17.67 73 17.34 73 17 73 C17 58.81 17 44.62 17 30 C15.68 30.33 14.36 30.66 13 31 C10.75646063 31.08173345 8.51063108 31.10750277 6.265625 31.09765625 C4.97011719 31.09443359 3.67460937 31.09121094 2.33984375 31.08789062 C0.97656183 31.07953598 -0.38671942 31.07107104 -1.75 31.0625 C-3.12890465 31.05748168 -4.50781104 31.05291935 -5.88671875 31.04882812 C-9.25785659 31.03704093 -12.62890628 31.02058635 -16 31 C-16 30.67 -16 30.34 -16 30 C-13.69 30 -11.38 30 -9 30 C-9.00523682 29.2479126 -9.01047363 28.4958252 -9.01586914 27.72094727 C-9.03657227 24.33480658 -9.04963877 20.94867916 -9.0625 17.5625 C-9.07087891 16.37849609 -9.07925781 15.19449219 -9.08789062 13.97460938 C-9.09111328 12.84990234 -9.09433594 11.72519531 -9.09765625 10.56640625 C-9.10289307 9.52427979 -9.10812988 8.48215332 -9.11352539 7.40844727 C-9 5 -9 5 -8 4 C-6.48071962 3.92820036 -4.95832518 3.91607993 -3.4375 3.9375 C-2.61121094 3.94652344 -1.78492188 3.95554687 -0.93359375 3.96484375 C-0.29550781 3.97644531 0.34257812 3.98804687 1 4 C4.69266229 11.79562039 7.36498065 19.80336195 10 28 C9.23211036 23.28965255 7.70366863 18.92322917 6.125 14.4375 C5.86847656 13.68275391 5.61195313 12.92800781 5.34765625 12.15039062 C3.98314521 8.25913426 2.63518608 5.22691948 0 2 C0 1.34 0 0.68 0 0 Z " fill="#FBBCBB" transform="translate(163,100)"/>
<path d="M0 0 C1.299375 0.2165625 1.299375 0.2165625 2.625 0.4375 C8.71104335 1.31953527 14.86762363 1.60024731 21 2 C21 2.33 21 2.66 21 3 C18.03 3 15.06 3 12 3 C12 4.98 12 6.96 12 9 C13.11375 9.144375 14.2275 9.28875 15.375 9.4375 C19 10 19 10 21 11 C21 11.66 21 12.32 21 13 C18.8152247 14.27571484 16.62738381 15.54560673 14.4375 16.8125 C13.82841797 17.16892578 13.21933594 17.52535156 12.59179688 17.89257812 C8.49068625 20.25776891 4.37466063 22.19050465 0 24 C-1.54247898 24.72744671 -3.08427103 25.45635407 -4.625 26.1875 C-7.88869476 27.6547679 -10.36276521 28.46932062 -14 28 C-14 27.01 -14 26.02 -14 25 C-14.66 25 -15.32 25 -16 25 C-18.82824349 19.93547096 -20.28680279 15.8244439 -21 10 C-21.66 9.67 -22.32 9.34 -23 9 C-11.78 9 -0.56 9 11 9 C11 8.34 11 7.68 11 7 C10.37351563 6.87882812 9.74703125 6.75765625 9.1015625 6.6328125 C7.87566406 6.38144531 7.87566406 6.38144531 6.625 6.125 C5.81289062 5.96257812 5.00078125 5.80015625 4.1640625 5.6328125 C2 5 2 5 0 3 C0 2.01 0 1.02 0 0 Z " fill="#ECB7ED" transform="translate(86,91)"/>
<path d="M0 0 C0.33 0 0.66 0 1 0 C1 1.98 1 3.96 1 6 C1.62044189 5.98428955 2.24088379 5.9685791 2.88012695 5.95239258 C5.69082528 5.89003786 8.50137812 5.85100852 11.3125 5.8125 C12.77719727 5.77479492 12.77719727 5.77479492 14.27148438 5.73632812 C15.20927734 5.72666016 16.14707031 5.71699219 17.11328125 5.70703125 C17.97735596 5.6913208 18.84143066 5.67561035 19.73168945 5.65942383 C22.48863068 6.0733656 23.17091153 6.98422289 25 9 C27.58416247 9.33374277 27.58416247 9.33374277 30 9 C30.33 8.67 30.66 8.34 31 8 C40.45024778 6.99300638 49.78086207 9.18427295 59 11 C59.495 12.485 59.495 12.485 60 14 C54.65791125 15.46505444 49.60780682 16.38400913 44.0625 16.625 C43.29123779 16.66294678 42.51997559 16.70089355 41.7253418 16.73999023 C27.83388523 17.31863691 13.89978529 17.07459634 0 17 C0 11.39 0 5.78 0 0 Z " fill="#4BA1F8" transform="translate(146,193)"/>
<path d="M0 0 C12.02847138 14.05486612 15.41040659 33.76177062 15.125 51.6875 C15.11597656 52.78255859 15.10695312 53.87761719 15.09765625 55.00585938 C15.07438154 57.67081354 15.04169135 60.33528134 15 63 C14.34 63 13.68 63 13 63 C13.103125 64.216875 13.20625 65.43375 13.3125 66.6875 C13.36532413 73.30108102 10.58558579 79.02544999 8 85 C7.34 84.67 6.68 84.34 6 84 C5.86191297 77.90615937 6.3104398 72.40993903 7.4375 66.4375 C9.43603493 55.02478308 9.7313135 43.56242609 10 32 C8.2984375 32.0309375 8.2984375 32.0309375 6.5625 32.0625 C3 32 3 32 2 31 C1.77144436 29.2205713 1.60478964 27.43311151 1.46484375 25.64453125 C1.37783203 24.54689453 1.29082031 23.44925781 1.20117188 22.31835938 C1.0706543 20.58295898 1.0706543 20.58295898 0.9375 18.8125 C0.84662109 17.67490234 0.75574219 16.53730469 0.66210938 15.36523438 C0.26309604 10.22606268 -0.04942895 5.1574074 0 0 Z " fill="#D4E3F9" transform="translate(185,67)"/>
<path d="M0 0 C0.33 0 0.66 0 1 0 C1.85298376 3.67387495 2.10789471 7.0447393 2.0625 10.8125 C2.05347656 11.78832031 2.04445313 12.76414063 2.03515625 13.76953125 C2.02355469 14.50558594 2.01195313 15.24164063 2 16 C2.74946396 15.99777939 3.49892792 15.99555878 4.27110291 15.99327087 C11.31982291 15.97326821 18.36853315 15.958026 25.41727352 15.94818783 C29.0414596 15.94295998 32.6656223 15.93586413 36.28979492 15.92456055 C39.78459975 15.91372816 43.27938204 15.90772242 46.77420235 15.90512276 C48.76239389 15.90236449 50.75057631 15.89455312 52.73875427 15.88670349 C53.93992386 15.88662796 55.14109344 15.88655243 56.37866211 15.88647461 C57.97417152 15.88314369 57.97417152 15.88314369 59.60191345 15.87974548 C62 16 62 16 63 17 C63 18.98 63 20.96 63 23 C42.87 23 22.74 23 2 23 C0.79729036 20.59458071 0.79683337 18.89633409 0.68359375 16.2109375 C0.64169922 15.26992187 0.59980469 14.32890625 0.55664062 13.359375 C0.51732422 12.37453125 0.47800781 11.3896875 0.4375 10.375 C0.39431641 9.38242188 0.35113281 8.38984375 0.30664062 7.3671875 C0.20038931 4.91160162 0.09835036 2.45591297 0 0 Z " fill="#E6B9EC" transform="translate(63,157)"/>
<path d="M0 0 C5.94 0 11.88 0 18 0 C18 0.33 18 0.66 18 1 C12.39 1 6.78 1 1 1 C1 10.57 1 20.14 1 30 C2.98 30 4.96 30 7 30 C10.09565315 33.09565315 9.47440339 36.89519709 9.6328125 41.06640625 C9.67437469 41.97446518 9.71593689 42.88252411 9.75875854 43.81809998 C9.88970986 46.73258661 10.00725431 49.64745315 10.125 52.5625 C10.21141499 54.50068798 10.29864501 56.43883981 10.38671875 58.37695312 C10.74912709 66.59208368 11.04870535 74.7755318 11 83 C9.375 81.5625 9.375 81.5625 7 79 C6.25073242 78.21701538 6.25073242 78.21701538 5.48632812 77.41821289 C-0.67257343 69.83473229 0.10623392 61.13067701 0.125 51.875 C0.10734491 50.14637628 0.08721714 48.41777617 0.06469727 46.68920898 C0.01529701 42.3089257 0.00150656 37.92942468 0.00140381 33.54888916 C0.00004543 31.08249447 -0.00884528 28.6162654 -0.02099609 26.14990234 C-0.06361518 17.43258927 -0.05664677 8.71730915 0 0 Z " fill="#EDC0EC" transform="translate(39,99)"/>
<path d="M0 0 C1.87498437 2.81247655 2.95940338 5.22357209 4.125 8.375 C4.47820313 9.31085938 4.83140625 10.24671875 5.1953125 11.2109375 C6 14 6 14 6 19 C14.58 19 23.16 19 32 19 C32.495 17.515 32.495 17.515 33 16 C33.495 19.465 33.495 19.465 34 23 C33.34 23 32.68 23 32 23 C32 22.01 32 21.02 32 20 C23.42 20 14.84 20 6 20 C6 24.62 6 29.24 6 34 C0.72 34 -4.56 34 -10 34 C-10 32.02 -10 30.04 -10 28 C-9.34 28 -8.68 28 -8 28 C-8.33 26.989375 -8.66 25.97875 -9 24.9375 C-10.66588042 18.4499516 -10.15576843 11.64611974 -10 5 C-9.34 5 -8.68 5 -8 5 C-6.68 8.3 -5.36 11.6 -4 15 C-3.566875 12.40125 -3.566875 12.40125 -3.125 9.75 C-2.52213974 6.13283843 -1.8133922 3.20010388 0 0 Z " fill="#38EC2D" transform="translate(52,65)"/>
<path d="M0 0 C6.93 0 13.86 0 21 0 C21.125 13.25 21.125 13.25 20 20 C13.07 20 6.14 20 -1 20 C-1.08739683 13.09565007 -0.77142903 6.94286129 0 0 Z " fill="#E9EEF9" transform="translate(148,179)"/>
<path d="M0 0 C12.88712896 -0.6883333 12.88712896 -0.6883333 16.6875 1.75 C20.18074765 5.14883556 21.09260772 7.251257 21.3125 12.0625 C21 16 21 16 19.75 18.0625 C18 19 18 19 15.8125 18.6875 C15.214375 18.460625 14.61625 18.23375 14 18 C14 18.66 14 19.32 14 20 C13.01 19.67 12.02 19.34 11 19 C10.67 16.36 10.34 13.72 10 11 C8.35 11 6.7 11 5 11 C5 11.66 5 12.32 5 13 C3.56344146 13.08131463 2.1255517 13.13933559 0.6875 13.1875 C-0.51326172 13.23970703 -0.51326172 13.23970703 -1.73828125 13.29296875 C-4 13 -4 13 -5.77734375 11.68359375 C-7.61435396 9.15403655 -7.26358729 7.03125382 -7 4 C-6 3 -6 3 -3.4375 2.9375 C-2.2309375 2.9684375 -2.2309375 2.9684375 -1 3 C-0.67 2.01 -0.34 1.02 0 0 Z " fill="#EB2B12" transform="translate(134,36)"/>
<path d="M0 0 C1.65 0 3.3 0 5 0 C5.18175781 0.84884766 5.18175781 0.84884766 5.3671875 1.71484375 C5.53476563 2.44832031 5.70234375 3.18179688 5.875 3.9375 C6.11863281 5.03384766 6.11863281 5.03384766 6.3671875 6.15234375 C6.82961523 8.20700294 6.82961523 8.20700294 9 9 C9 8.34 9 7.68 9 7 C11.475 7.495 11.475 7.495 14 8 C12.625 10.5 12.625 10.5 11 13 C10.34 13 9.68 13 9 13 C9 13.66 9 14.32 9 15 C8.34 15 7.68 15 7 15 C7 17.97 7 20.94 7 24 C7.66 24.33 8.32 24.66 9 25 C9 25.66 9 26.32 9 27 C6.47524538 28.26237731 4.68799534 28.09856404 1.875 28.0625 C0.96492187 28.05347656 0.05484375 28.04445313 -0.8828125 28.03515625 C-1.93082031 28.01775391 -1.93082031 28.01775391 -3 28 C-3 25.62417777 -2.95479344 23.24655726 -2.8125 20.875 C-2.874375 19.92625 -2.93625 18.9775 -3 18 C-3.99 17.34 -4.98 16.68 -6 16 C-7.16216154 12.94517539 -7.10513524 9.99027838 -7.0625 6.75 C-7.05347656 5.85796875 -7.04445312 4.9659375 -7.03515625 4.046875 C-7.02355469 3.37140625 -7.01195312 2.6959375 -7 2 C-4.69 2 -2.38 2 0 2 C0 1.34 0 0.68 0 0 Z " fill="#FDAA9F" transform="translate(139,47)"/>
<path d="M0 0 C3.96 0 7.92 0 12 0 C9.20731707 33.51219512 9.20731707 33.51219512 2 48 C0.8365909 45.67318179 0.88476426 44.35440733 0.90234375 41.765625 C0.90564697 40.89131836 0.9089502 40.01701172 0.91235352 39.11621094 C0.92065186 38.17036133 0.9289502 37.22451172 0.9375 36.25 C0.94317993 34.7964209 0.94317993 34.7964209 0.94897461 33.31347656 C0.96537868 29.15554751 0.99352533 24.99771542 1.02050781 20.83984375 C1.03852062 17.8099004 1.05066023 14.77997272 1.0625 11.75 C1.07079834 10.80415039 1.07909668 9.85830078 1.08764648 8.88378906 C1.09094971 8.00948242 1.09425293 7.13517578 1.09765625 6.234375 C1.10289307 5.46319336 1.10812988 4.69201172 1.11352539 3.89746094 C1.11942371 1.91134983 1.11942371 1.91134983 0 0 Z " fill="#FBB9C9" transform="translate(180,128)"/>
<path d="M0 0 C0.33 0 0.66 0 1 0 C1.66 17.82 2.32 35.64 3 54 C0.36 54 -2.28 54 -5 54 C-5.19932728 35.46256313 -4.94744366 17.97187672 0 0 Z " fill="#E9B0BA" transform="translate(138,144)"/>
<path d="M0 0 C2.4296875 1.05859375 2.4296875 1.05859375 5 3 C5.8203125 6.28515625 5.8203125 6.28515625 6.125 10.0625 C6.38057767 13.75568377 6.38057767 13.75568377 7 17 C7.99 17.66 8.98 18.32 10 19 C10.1875 22.125 10.1875 22.125 10 25 C9.31292969 25.26554687 8.62585938 25.53109375 7.91796875 25.8046875 C7.01691406 26.15789062 6.11585938 26.51109375 5.1875 26.875 C4.29417969 27.22304687 3.40085938 27.57109375 2.48046875 27.9296875 C-0.17711591 28.98832155 -0.17711591 28.98832155 -3 31 C-4.30433619 25.06372979 -4.11086318 19.16667748 -4.0625 13.125 C-4.05798828 12.05507813 -4.05347656 10.98515625 -4.04882812 9.8828125 C-4.03709749 7.25515014 -4.02068228 4.62760462 -4 2 C-2.68 2 -1.36 2 0 2 C0 1.34 0 0.68 0 0 Z " fill="#CBD4F4" transform="translate(127,46)"/>
<path d="M0 0 C1.485 0.99 1.485 0.99 3 2 C5.58380177 2.25030977 5.58380177 2.25030977 8 2 C8.33 1.67 8.66 1.34 9 1 C18.45024778 -0.00699362 27.78086207 2.18427295 37 4 C37.495 5.485 37.495 5.485 38 7 C32.1802193 8.63432198 26.77986193 9.38984705 20.75 9.625 C19.92459717 9.66294678 19.09919434 9.70089355 18.2487793 9.73999023 C11.83195724 10.01604316 5.42239446 10.11537236 -1 10 C0.65 8.68 2.3 7.36 4 6 C3.34 5.38125 2.68 4.7625 2 4.125 C0 2 0 2 0 0 Z " fill="#87B8F7" transform="translate(168,200)"/>
<path d="M0 0 C3.33333211 5.36231688 3.95898837 10.72522124 4 17 C3 19 3 19 0.875 20.125 C-2.51976872 21.15819048 -5.46867957 21.05816292 -9 21 C-9.10812003 18.24894578 -9.18734945 15.50214913 -9.25 12.75 C-9.28351563 11.97269531 -9.31703125 11.19539063 -9.3515625 10.39453125 C-9.45030299 4.61821258 -9.45030299 4.61821258 -7.15625 1.46875 C-4.56245107 -0.29804058 -3.07678004 -0.34186445 0 0 Z " fill="#FECA2E" transform="translate(164,104)"/>
<path d="M0 0 C17.49 0 34.98 0 53 0 C53 1.32 53 2.64 53 4 C35.18 4 17.36 4 -1 4 C-0.67 2.68 -0.34 1.36 0 0 Z " fill="#FEA32B" transform="translate(71,149)"/>
<path d="M0 0 C1.87498437 2.81247655 2.95940338 5.22357209 4.125 8.375 C4.47820313 9.31085938 4.83140625 10.24671875 5.1953125 11.2109375 C6 14 6 14 6 19 C14.58 19 23.16 19 32 19 C32.495 17.515 32.495 17.515 33 16 C33.495 19.465 33.495 19.465 34 23 C33.34 23 32.68 23 32 23 C32 22.01 32 21.02 32 20 C23.42 20 14.84 20 6 20 C6 24.62 6 29.24 6 34 C0.72 34 -4.56 34 -10 34 C-10 32.02 -10 30.04 -10 28 C-5.38 28 -0.76 28 4 28 C3.67 23.38 3.34 18.76 3 14 C2.34 14.66 1.68 15.32 1 16 C0.67 12.37 0.34 8.74 0 5 C-0.66 6.98 -1.32 8.96 -2 11 C-2.95465783 8.83032311 -3.14401212 7.43671207 -2.3984375 5.17578125 C-1.64129615 3.4315257 -0.82390802 1.71372869 0 0 Z " fill="#5AD75E" transform="translate(52,65)"/>
<path d="M0 0 C2.0625 0.4375 2.0625 0.4375 4 1 C3.5155542 1.4122583 3.0311084 1.8245166 2.53198242 2.24926758 C0.70832867 4.33331874 0.59077411 5.28540863 0.48828125 8.01171875 C0.45283203 8.76904297 0.41738281 9.52636719 0.38085938 10.30664062 C0.34702148 11.48516602 0.34702148 11.48516602 0.3125 12.6875 C0.27833984 13.48478516 0.24417969 14.28207031 0.20898438 15.10351562 C0.12661896 17.06851904 0.06162933 19.03423696 0 21 C4.02854781 20.435339 8.01977172 19.84429085 12 19 C12 15.7 12 12.4 12 9 C14.04060129 12.06090193 14.95646418 14.6344687 16.0625 18.125 C17.00882324 21.85361694 17.00882324 21.85361694 19 25 C21.05396726 24.59070014 21.05396726 24.59070014 23 24 C23.33 24.66 23.66 25.32 24 26 C20.58248347 27.13917218 17.96512063 27.11338481 14.36328125 27.09765625 C13.06455078 27.09443359 11.76582031 27.09121094 10.42773438 27.08789062 C9.05598892 27.07953531 7.68424413 27.07107037 6.3125 27.0625 C4.92903805 27.05748335 3.54557437 27.05292073 2.16210938 27.04882812 C-1.22530395 27.03702529 -4.61263033 27.02056019 -8 27 C-8 26.67 -8 26.34 -8 26 C-5.69 26 -3.38 26 -1 26 C-1.00523682 25.2479126 -1.01047363 24.4958252 -1.01586914 23.72094727 C-1.03657227 20.33480658 -1.04963877 16.94867916 -1.0625 13.5625 C-1.07087891 12.37849609 -1.07925781 11.19449219 -1.08789062 9.97460938 C-1.09111328 8.84990234 -1.09433594 7.72519531 -1.09765625 6.56640625 C-1.10289307 5.52427979 -1.10812988 4.48215332 -1.11352539 3.40844727 C-1 1 -1 1 0 0 Z " fill="#FBC971" transform="translate(155,104)"/>
<path d="M0 0 C0.33 0 0.66 0 1 0 C1.85298376 3.67387495 2.10789471 7.0447393 2.0625 10.8125 C2.05347656 11.78832031 2.04445313 12.76414063 2.03515625 13.76953125 C2.02355469 14.50558594 2.01195313 15.24164063 2 16 C2.74946396 15.99777939 3.49892792 15.99555878 4.27110291 15.99327087 C11.31982291 15.97326821 18.36853315 15.958026 25.41727352 15.94818783 C29.0414596 15.94295998 32.6656223 15.93586413 36.28979492 15.92456055 C39.78459975 15.91372816 43.27938204 15.90772242 46.77420235 15.90512276 C48.76239389 15.90236449 50.75057631 15.89455312 52.73875427 15.88670349 C53.93992386 15.88662796 55.14109344 15.88655243 56.37866211 15.88647461 C57.97417152 15.88314369 57.97417152 15.88314369 59.60191345 15.87974548 C62 16 62 16 63 17 C63.04080783 18.99958364 63.04254356 21.00045254 63 23 C62.67 23 62.34 23 62 23 C62 21.35 62 19.7 62 18 C42.53 18 23.06 18 3 18 C3 19.32 3 20.64 3 22 C8.61 22 14.22 22 20 22 C20 22.33 20 22.66 20 23 C14.06 23 8.12 23 2 23 C0.79729036 20.59458071 0.79683337 18.89633409 0.68359375 16.2109375 C0.64169922 15.26992187 0.59980469 14.32890625 0.55664062 13.359375 C0.51732422 12.37453125 0.47800781 11.3896875 0.4375 10.375 C0.39431641 9.38242188 0.35113281 8.38984375 0.30664062 7.3671875 C0.20038931 4.91160162 0.09835036 2.45591297 0 0 Z " fill="#E9BFC7" transform="translate(63,157)"/>
<path d="M0 0 C18.15 0 36.3 0 55 0 C55 0.99 55 1.98 55 3 C36.52 3 18.04 3 -1 3 C-0.67 2.01 -0.34 1.02 0 0 Z " fill="#FD9A2B" transform="translate(70,128)"/>
<path d="M0 0 C0.13651755 21.69158889 -0.17563523 43.32315295 -1 65 C-1.33 65 -1.66 65 -2 65 C-2 45.86 -2 26.72 -2 7 C-14.0777447 6.7148548 -14.0777447 6.7148548 -26 8 C-23.82575883 5.49962266 -22.26954202 4.56371414 -19 4 C-19 3.34 -19 2.68 -19 2 C-17.95199219 2.02320312 -16.90398437 2.04640625 -15.82421875 2.0703125 C-14.44531963 2.08907303 -13.0664128 2.10727293 -11.6875 2.125 C-10.65206055 2.15013672 -10.65206055 2.15013672 -9.59570312 2.17578125 C-5.91760839 2.2113184 -3.00153712 0 0 0 Z " fill="#E9A45C" transform="translate(126,100)"/>
<path d="M0 0 C0.33 0 0.66 0 1 0 C1.10957031 0.61488281 1.21914062 1.22976562 1.33203125 1.86328125 C1.49058594 2.67152344 1.64914063 3.47976562 1.8125 4.3125 C1.96332031 5.11300781 2.11414063 5.91351563 2.26953125 6.73828125 C2.83001404 9.07232018 2.83001404 9.07232018 4.57421875 10.54296875 C6 12 6 12 6 16 C8.31 14.68 10.62 13.36 13 12 C13.04898438 12.63808594 13.09796875 13.27617188 13.1484375 13.93359375 C13.22320312 14.75988281 13.29796875 15.58617188 13.375 16.4375 C13.44460937 17.26121094 13.51421875 18.08492187 13.5859375 18.93359375 C13.72257813 19.61550781 13.85921875 20.29742187 14 21 C14.66 21.33 15.32 21.66 16 22 C16 22.66 16 23.32 16 24 C13.47524538 25.26237731 11.68799534 25.09856404 8.875 25.0625 C7.96492187 25.05347656 7.05484375 25.04445313 6.1171875 25.03515625 C5.06917969 25.01775391 5.06917969 25.01775391 4 25 C4 22.62417777 4.04520656 20.24655726 4.1875 17.875 C4.125625 16.92625 4.06375 15.9775 4 15 C3.01 14.34 2.02 13.68 1 13 C-0.08875763 10.08835102 -0.1078649 7.33481334 -0.0625 4.25 C-0.05347656 3.45078125 -0.04445312 2.6515625 -0.03515625 1.828125 C-0.02355469 1.22484375 -0.01195312 0.6215625 0 0 Z " fill="#FAACA3" transform="translate(132,50)"/>
<path d="M0 0 C2.31 0 4.62 0 7 0 C7.33 5.94 7.66 11.88 8 18 C5.36 18 2.72 18 0 18 C0 12.06 0 6.12 0 0 Z " fill="#D7E0F3" transform="translate(133,180)"/>
<path d="M0 0 C-0.33 0.66 -0.66 1.32 -1 2 C-1.99 2.33 -2.98 2.66 -4 3 C-2.35 3 -0.7 3 1 3 C1 3.66 1 4.32 1 5 C3.64 5 6.28 5 9 5 C9 7.31 9 9.62 9 12 C2.59859065 11.53444296 -2.26769829 9.85288164 -8 7 C-8 5.02 -8 3.04 -8 1 C-5.29120665 -0.35439668 -2.99066732 -0.06501451 0 0 Z " fill="#EE9487" transform="translate(142,93)"/>
<path d="M0 0 C7.26 0 14.52 0 22 0 C22 2.64 22 5.28 22 8 C21.67 6.68 21.34 5.36 21 4 C14.07 4 7.14 4 0 4 C0 2.68 0 1.36 0 0 Z " fill="#FBC0C9" transform="translate(148,175)"/>
<path d="M0 0 C5.28 0.33 10.56 0.66 16 1 C16 2.65 16 4.3 16 6 C10.72 6 5.44 6 0 6 C0 4.02 0 2.04 0 0 Z " fill="#54B4F4" transform="translate(42,93)"/>
<path d="M0 0 C0 5.28 0 10.56 0 16 C-2.31 15.34 -4.62 14.68 -7 14 C-7.125 7.25 -7.125 7.25 -6 5 C-5.34 5 -4.68 5 -4 5 C-4 4.34 -4 3.68 -4 3 C-1.34615385 0 -1.34615385 0 0 0 Z " fill="#D4CBEC" transform="translate(152,57)"/>
<path d="M0 0 C7.26 0 14.52 0 22 0 C21.01 1.32 20.02 2.64 19 4 C16.18146187 4.35231727 13.80332241 4.46977425 11 4.375 C10.27554688 4.37371094 9.55109375 4.37242187 8.8046875 4.37109375 C5.03253317 4.3084565 3.20261358 4.13507572 0 2 C0 1.34 0 0.68 0 0 Z " fill="#E1E1E1" transform="translate(100,0)"/>
<path d="M0 0 C0.33 0 0.66 0 1 0 C1.12117187 0.98742187 1.24234375 1.97484375 1.3671875 2.9921875 C1.53476563 4.27351562 1.70234375 5.55484375 1.875 6.875 C2.03742188 8.15117187 2.19984375 9.42734375 2.3671875 10.7421875 C2.69877473 14.07164227 2.69877473 14.07164227 5 16 C2.04335481 17.4783226 -0.74229737 17.06032783 -4 17 C-4 17.99 -4 18.98 -4 20 C-4.99 20 -5.98 20 -7 20 C-7 17.36 -7 14.72 -7 12 C-4.36 12 -1.72 12 1 12 C0.835 11.505 0.67 11.01 0.5 10.5 C-0.20688818 6.96555911 -0.06005155 3.60309299 0 0 Z " fill="#5CA7E5" transform="translate(140,186)"/>
<path d="M0 0 C0.66 0 1.32 0 2 0 C3.32 3.3 4.64 6.6 6 10 C6.33 10 6.66 10 7 10 C7 11.98 7 13.96 7 16 C6.01 15.67 5.02 15.34 4 15 C3.67 14.34 3.34 13.68 3 13 C3 16.3 3 19.6 3 23 C-0.35367404 17.96948894 -0.13587777 13.0859437 -0.0625 7.1875 C-0.05798828 6.49462891 -0.05347656 5.80175781 -0.04882812 5.08789062 C-0.03713156 3.39188932 -0.01919924 1.69593297 0 0 Z " fill="#4DEC3C" transform="translate(42,70)"/>
<path d="M0 0 C0.33 0 0.66 0 1 0 C1 6.93 1 13.86 1 21 C-0.65 21 -2.3 21 -4 21 C-3.54034292 13.69303751 -2.11670277 7.00242552 0 0 Z " fill="#CBCBEC" transform="translate(138,144)"/>
<path d="M0 0 C1.299375 0.2165625 1.299375 0.2165625 2.625 0.4375 C8.71104335 1.31953527 14.86762363 1.60024731 21 2 C21 2.33 21 2.66 21 3 C18.03 3 15.06 3 12 3 C12 4.65 12 6.3 12 8 C10.37276701 7.54965877 8.74826336 7.08944646 7.125 6.625 C6.22007813 6.36976562 5.31515625 6.11453125 4.3828125 5.8515625 C2 5 2 5 0 3 C0 2.01 0 1.02 0 0 Z " fill="#F1A185" transform="translate(86,91)"/>
<path d="M0 0 C2.16066331 3.24099496 2.37886905 4.76279759 2.6875 8.5625 C2.77386719 9.53316406 2.86023438 10.50382812 2.94921875 11.50390625 C3 14 3 14 2 16 C-2.03374456 18.13551182 -5.4932782 18.17673419 -10 18 C-10 17.34 -10 16.68 -10 16 C-9.01 16 -8.02 16 -7 16 C-7 15.34 -7 14.68 -7 14 C-5.35 13.67 -3.7 13.34 -2 13 C-2 12.34 -2 11.68 -2 11 C-1.34 10.67 -0.68 10.34 0 10 C0 6.7 0 3.4 0 0 Z " fill="#FDC950" transform="translate(165,107)"/>
<path d="M0 0 C-0.33 0.66 -0.66 1.32 -1 2 C-1.99 2.33 -2.98 2.66 -4 3 C-2.35 3 -0.7 3 1 3 C1 4.65 1 6.3 1 8 C-5.75 8.125 -5.75 8.125 -8 7 C-8 5.02 -8 3.04 -8 1 C-5.29120665 -0.35439668 -2.99066732 -0.06501451 0 0 Z " fill="#F2AC8A" transform="translate(142,93)"/>
<path d="M0 0 C1.485 0.99 1.485 0.99 3 2 C3.22107787 4.7885289 3.28107535 7.34653181 3.1875 10.125 C3.17396484 10.87910156 3.16042969 11.63320312 3.14648438 12.41015625 C3.11109985 14.27374127 3.05729167 16.13695978 3 18 C2.01 18.33 1.02 18.66 0 19 C0 12.73 0 6.46 0 0 Z " fill="#FEFEFE" transform="translate(0,100)"/>
<path d="M0 0 C0 0.99 0 1.98 0 3 C-0.495 2.505 -0.495 2.505 -1 2 C-3.82809717 2.03898755 -6.6163818 2.14387822 -9.4375 2.3125 C-10.253396 2.36027588 -11.06929199 2.40805176 -11.90991211 2.45727539 C-20.59794538 2.93582727 -20.59794538 2.93582727 -29 5 C-29.33 5.66 -29.66 6.32 -30 7 C-31.32 6.67 -32.64 6.34 -34 6 C-34 5.34 -34 4.68 -34 4 C-28.74367483 1.94917149 -23.69181207 1.37956989 -18.125 0.875 C-17.26519531 0.78863281 -16.40539062 0.70226562 -15.51953125 0.61328125 C-10.32123396 0.11632718 -5.22122637 -0.0847995 0 0 Z " fill="#ADC9F2" transform="translate(55,200)"/>
<path d="M0 0 C3.875 1.75 3.875 1.75 5 4 C5.12438451 6.65835737 5.18516188 9.27905229 5.1875 11.9375 C5.19974609 12.66646484 5.21199219 13.39542969 5.22460938 14.14648438 C5.23512685 17.9713391 5.17095624 19.74356564 3 23 C2.01 23 1.02 23 0 23 C0 22.34 0 21.68 0 21 C0.66 20.67 1.32 20.34 2 20 C2.05407567 17.41638482 2.093707 14.83390745 2.125 12.25 C2.14175781 11.52039063 2.15851563 10.79078125 2.17578125 10.0390625 C2.21072239 6.1955376 2.17499684 3.25393228 0 0 Z " fill="#D2D2D2" transform="translate(0,98)"/>
<path d="M0 0 C2 2 2 2 2 6 C-1.52679099 8.35119399 -3.02879485 8.21443452 -7.1875 8.125 C-8.27417969 8.10695312 -9.36085937 8.08890625 -10.48046875 8.0703125 C-11.72763672 8.03550781 -11.72763672 8.03550781 -13 8 C-12.34 7.67 -11.68 7.34 -11 7 C-11 6.34 -11 5.68 -11 5 C-5.555 4.505 -5.555 4.505 0 4 C0 2.68 0 1.36 0 0 Z " fill="#F8BA9B" transform="translate(170,122)"/>
<path d="M0 0 C2.375 -0.125 2.375 -0.125 5 0 C5.66 0.66 6.32 1.32 7 2 C6.625 4.625 6.625 4.625 6 7 C3.625 7.125 3.625 7.125 1 7 C0.34 6.34 -0.32 5.68 -1 5 C-0.625 2.375 -0.625 2.375 0 0 Z " fill="#DBD9E2" transform="translate(64,67)"/>
<path d="M0 0 C0.33 0 0.66 0 1 0 C2.48838277 7.56594576 1.4969758 13.08018924 -2 20 C-2.66 20.33 -3.32 20.66 -4 21 C-2.74602127 13.98305518 -1.42415912 6.98443993 0 0 Z " fill="#DFD5EA" transform="translate(190,145)"/>
<path d="M0 0 C2.0625 0.4375 2.0625 0.4375 4 1 C3.5155542 1.38518799 3.0311084 1.77037598 2.53198242 2.16723633 C0.48924672 4.61103185 0.57554405 6.16530538 0.48828125 9.32421875 C0.45283203 10.35224609 0.41738281 11.38027344 0.38085938 12.43945312 C0.34702148 14.04723633 0.34702148 14.04723633 0.3125 15.6875 C0.27833984 16.77095703 0.24417969 17.85441406 0.20898438 18.97070312 C0.1264544 21.6470322 0.05732063 24.32303159 0 27 C-2.64 27 -5.28 27 -8 27 C-8 26.67 -8 26.34 -8 26 C-5.69 26 -3.38 26 -1 26 C-1.00523682 25.2479126 -1.01047363 24.4958252 -1.01586914 23.72094727 C-1.03657227 20.33480658 -1.04963877 16.94867916 -1.0625 13.5625 C-1.07087891 12.37849609 -1.07925781 11.19449219 -1.08789062 9.97460938 C-1.09111328 8.84990234 -1.09433594 7.72519531 -1.09765625 6.56640625 C-1.10289307 5.52427979 -1.10812988 4.48215332 -1.11352539 3.40844727 C-1 1 -1 1 0 0 Z " fill="#D3735F" transform="translate(155,104)"/>
<path d="M0 0 C0.66 0 1.32 0 2 0 C2 1.32 2 2.64 2 4 C3.98 3.67 5.96 3.34 8 3 C8.99 4.485 8.99 4.485 10 6 C5.25 10 5.25 10 3 10 C1.5783681 6.6828589 0.60990891 3.55780196 0 0 Z " fill="#FBA28B" transform="translate(135,56)"/>
<path d="M0 0 C1.65 0 3.3 0 5 0 C5 2.64 5 5.28 5 8 C3.35 8 1.7 8 0 8 C0 5.36 0 2.72 0 0 Z " fill="#F1A94D" transform="translate(134,165)"/>
<path d="M0 0 C0.33 0 0.66 0 1 0 C1.22142255 1.95689659 1.4267568 3.91561952 1.625 5.875 C1.74101563 6.96554688 1.85703125 8.05609375 1.9765625 9.1796875 C1.98429687 10.11039063 1.99203125 11.04109375 2 12 C1.34 12.66 0.68 13.32 0 14 C-0.40047444 16.32275177 -0.7397104 18.65739357 -1 21 C-1.33 21 -1.66 21 -2 21 C-1.86179731 17.6871348 -1.71316222 14.37482011 -1.5625 11.0625 C-1.52318359 10.11697266 -1.48386719 9.17144531 -1.44335938 8.19726562 C-1.40146484 7.29814453 -1.35957031 6.39902344 -1.31640625 5.47265625 C-1.27974854 4.64000244 -1.24309082 3.80734863 -1.20532227 2.94946289 C-1 1 -1 1 0 0 Z " fill="#D9D9F2" transform="translate(59,128)"/>
<path d="M0 0 C0.268125 0.639375 0.53625 1.27875 0.8125 1.9375 C1.88667752 4.33131686 1.88667752 4.33131686 5 5 C5 7.31 5 9.62 5 12 C3.68 12 2.36 12 1 12 C0.01751476 7.9472484 -0.08159574 4.16138263 0 0 Z " fill="#2CE128" transform="translate(44,81)"/>
<path d="M0 0 C8.58 0 17.16 0 26 0 C26 1.32 26 2.64 26 4 C25.34 4 24.68 4 24 4 C24 3.34 24 2.68 24 2 C16.08 1.67 8.16 1.34 0 1 C0 0.67 0 0.34 0 0 Z " fill="#53A6F4" transform="translate(101,198)"/>
<path d="M0 0 C1.32 0 2.64 0 4 0 C8.59225513 9.22551253 8.59225513 9.22551253 8 15 C5.21840961 13.60920481 5.07774078 12.06287872 4 9.1875 C2.80588472 6.02962483 1.5633367 2.99406895 0 0 Z " fill="#FAC35E" transform="translate(163,100)"/>
<path d="M0 0 C0.33 0 0.66 0 1 0 C1.10957031 0.61488281 1.21914062 1.22976562 1.33203125 1.86328125 C1.49058594 2.67152344 1.64914063 3.47976562 1.8125 4.3125 C1.96332031 5.11300781 2.11414063 5.91351563 2.26953125 6.73828125 C2.82518762 9.06919261 2.82518762 9.06919261 4.5625 10.5 C6 12 6 12 6.29296875 14.26171875 C6.25816406 15.06222656 6.22335938 15.86273438 6.1875 16.6875 C6.16042969 17.49574219 6.13335937 18.30398437 6.10546875 19.13671875 C6.07066406 19.75160156 6.03585938 20.36648437 6 21 C5.67 21 5.34 21 5 21 C4.896875 20.05125 4.79375 19.1025 4.6875 18.125 C4.31460705 14.70892499 4.31460705 14.70892499 1 13 C-0.08875763 10.08835102 -0.1078649 7.33481334 -0.0625 4.25 C-0.05347656 3.45078125 -0.04445312 2.6515625 -0.03515625 1.828125 C-0.02355469 1.22484375 -0.01195312 0.6215625 0 0 Z " fill="#F5B8B6" transform="translate(132,50)"/>
<path d="M0 0 C2 3 2 3 2 7 C1.34 7 0.68 7 0 7 C0 6.01 0 5.02 0 4 C-8.58 4 -17.16 4 -26 4 C-26 3.67 -26 3.34 -26 3 C-17.42 3 -8.84 3 0 3 C0 2.01 0 1.02 0 0 Z " fill="#8581B1" transform="translate(84,81)"/>
<path d="M0 0 C0.66 0 1.32 0 2 0 C2 5.94 2 11.88 2 18 C-0.73546025 15.26453975 -0.42807735 13.37728884 -0.6875 9.5625 C-0.77386719 8.40878906 -0.86023438 7.25507812 -0.94921875 6.06640625 C-1 3 -1 3 0 0 Z " fill="#D0D0D0" transform="translate(217,101)"/>
<path d="M0 0 C5.61 0 11.22 0 17 0 C16.67 0.66 16.34 1.32 16 2 C12.50455695 2.36143979 9.02724462 2.44472324 5.515625 2.55859375 C1.85353053 3.01839006 0.03142088 4.00066715 -3 6 C-5.3125 5.6875 -5.3125 5.6875 -7 5 C-2.25 2 -2.25 2 0 2 C0 1.34 0 0.68 0 0 Z " fill="#ED9182" transform="translate(107,102)"/>
<path d="M0 0 C3.63 0 7.26 0 11 0 C11 0.99 11 1.98 11 3 C7.37 3 3.74 3 0 3 C0 2.01 0 1.02 0 0 Z " fill="#842260" transform="translate(121,203)"/>
<path d="M0 0 C1.53760842 3.07521683 0.36599236 5.34675118 -0.4375 8.625 C-0.72496094 9.81351563 -1.01242188 11.00203125 -1.30859375 12.2265625 C-1.53675781 13.14179687 -1.76492187 14.05703125 -2 15 C-3.58158962 11.99112219 -4.43945339 9.36327963 -5 6 C-4.01 5.34 -3.02 4.68 -2 4 C-0.80767387 1.94996045 -0.80767387 1.94996045 0 0 Z " fill="#B8F3CA" transform="translate(50,67)"/>
<path d="M0 0 C1.98 0.66 3.96 1.32 6 2 C5.67 2.99 5.34 3.98 5 5 C4.18789062 4.75443359 4.18789062 4.75443359 3.359375 4.50390625 C0.59777407 3.91409413 -1.92818139 3.90390692 -4.75 3.9375 C-5.73484375 3.94652344 -6.7196875 3.95554687 -7.734375 3.96484375 C-8.85585937 3.98224609 -8.85585937 3.98224609 -10 4 C-10 3.67 -10 3.34 -10 3 C-6.7 2.67 -3.4 2.34 0 2 C0 1.34 0 0.68 0 0 Z " fill="#AD289E" transform="translate(148,72)"/>
<path d="M0 0 C3.3 0 6.6 0 10 0 C10 0.99 10 1.98 10 3 C6.7 3 3.4 3 0 3 C0 2.01 0 1.02 0 0 Z " fill="#7F2866" transform="translate(136,203)"/>
<path d="M0 0 C-2.25964458 3.38946688 -3.20729138 3.85336716 -7 5 C-9.8125 5.125 -9.8125 5.125 -12 5 C-11.34 4.67 -10.68 4.34 -10 4 C-10 3.34 -10 2.68 -10 2 C-8.71211992 1.46987262 -7.41953322 0.9511671 -6.125 0.4375 C-5.40570313 0.14746094 -4.68640625 -0.14257812 -3.9453125 -0.44140625 C-2 -1 -2 -1 0 0 Z " fill="#FEB75A" transform="translate(75,121)"/>
<path d="M0 0 C0.66 0 1.32 0 2 0 C2.66 2.31 3.32 4.62 4 7 C3.01 6.67 2.02 6.34 1 6 C1 8.97 1 11.94 1 15 C0.67 15 0.34 15 0 15 C0 10.05 0 5.1 0 0 Z " fill="#64F25A" transform="translate(42,70)"/>
<path d="M0 0 C2.31 0.33 4.62 0.66 7 1 C6.34 2.32 5.68 3.64 5 5 C3.68 4.67 2.36 4.34 1 4 C0.67 2.68 0.34 1.36 0 0 Z " fill="#FAA577" transform="translate(86,91)"/>
<path d="M0 0 C0.99 0.66 1.98 1.32 3 2 C1.58480285 4.0343459 0.45017877 4.90410393 -1.98046875 5.421875 C-3.98176954 5.66273952 -5.9909944 5.83532741 -8 6 C-8 5.34 -8 4.68 -8 4 C-7.05125 3.896875 -6.1025 3.79375 -5.125 3.6875 C-1.70892499 3.31460705 -1.70892499 3.31460705 0 0 Z " fill="#5EABFC" transform="translate(170,204)"/>
<path d="M0 0 C3.375 -0.1875 3.375 -0.1875 7 0 C7.66 0.99 8.32 1.98 9 3 C5.37 3 1.74 3 -2 3 C-1.34 2.67 -0.68 2.34 0 2 C0 1.34 0 0.68 0 0 Z " fill="#FDCB9C" transform="translate(159,127)"/>
<path d="M0 0 C0.99 0.66 1.98 1.32 3 2 C0.04335481 3.4783226 -2.74229737 3.06032783 -6 3 C-6 3.99 -6 4.98 -6 6 C-6.99 6 -7.98 6 -9 6 C-9 4.68 -9 3.36 -9 2 C-6.03 2 -3.06 2 0 2 C0 1.34 0 0.68 0 0 Z " fill="#569AE1" transform="translate(142,200)"/>
<path d="M0 0 C1.65 0.33 3.3 0.66 5 1 C3.625 3.5 3.625 3.5 2 6 C1.34 6 0.68 6 0 6 C0 5.01 0 4.02 0 3 C-0.66 2.67 -1.32 2.34 -2 2 C-1.34 2 -0.68 2 0 2 C0 1.34 0 0.68 0 0 Z " fill="#EE9277" transform="translate(148,54)"/>
<path d="M0 0 C0.33 0 0.66 0 1 0 C2.32854177 5.9180497 1.66464729 8.77729131 -1 14 C-2.13732426 10.59598052 -1.83989957 8.22543336 -1.0625 4.75 C-0.86785156 3.85796875 -0.67320312 2.9659375 -0.47265625 2.046875 C-0.31667969 1.37140625 -0.16070312 0.6959375 0 0 Z " fill="#9F9FD2" transform="translate(136,151)"/>
<path d="M0 0 C0.99 0 1.98 0 3 0 C3.33 0.33 3.66 0.66 4 1 C6.05396726 0.59070014 6.05396726 0.59070014 8 0 C8.33 0.66 8.66 1.32 9 2 C5.52674819 3.1577506 2.63932552 3.06866652 -1 3 C-0.67 2.01 -0.34 1.02 0 0 Z " fill="#F0AB4E" transform="translate(170,128)"/>
<path d="M0 0 C2 2 2 2 2.125 4.625 C2.08375 5.40875 2.0425 6.1925 2 7 C0.02 7 -1.96 7 -4 7 C-4.33 6.34 -4.66 5.68 -5 5 C-3.35 5 -1.7 5 0 5 C0 3.35 0 1.7 0 0 Z " fill="#D4A9D6" transform="translate(61,197)"/>
<path d="M0 0 C0.99 0 1.98 0 3 0 C3 2.31 3 4.62 3 7 C2.01 7 1.02 7 0 7 C0 4.69 0 2.38 0 0 Z " fill="#BDCDF2" transform="translate(89,47)"/>
<path d="M0 0 C0.33 0 0.66 0 1 0 C1 3.3 1 6.6 1 10 C0.67 10 0.34 10 0 10 C-0.33 8.35 -0.66 6.7 -1 5 C-1.99 5.66 -2.98 6.32 -4 7 C-2.92598892 4.08482708 -2.22189824 2.22189824 0 0 Z " fill="#DAE1F5" transform="translate(51,45)"/>
<path d="M0 0 C0.33 0 0.66 0 1 0 C1 2.64 1 5.28 1 8 C-0.32 8.33 -1.64 8.66 -3 9 C-2.01 6.03 -1.02 3.06 0 0 Z " fill="#49F72D" transform="translate(52,69)"/>
<path d="M0 0 C0.99 0 1.98 0 3 0 C3 1.98 3 3.96 3 6 C2.01 6 1.02 6 0 6 C0 4.02 0 2.04 0 0 Z " fill="#B3C9F4" transform="translate(89,71)"/>
<path d="M0 0 C2.31 0.33 4.62 0.66 7 1 C7.33 1.99 7.66 2.98 8 4 C6.35 4 4.7 4 3 4 C3 3.34 3 2.68 3 2 C2.01 1.34 1.02 0.68 0 0 Z " fill="#9AC0F1" transform="translate(198,203)"/>
<path d="M0 0 C1.32 0 2.64 0 4 0 C4.33 1.65 4.66 3.3 5 5 C4.01 5.495 4.01 5.495 3 6 C0 2.25 0 2.25 0 0 Z " fill="#F9BA75" transform="translate(163,100)"/>
</svg>
